

<svg width="200" height="201" viewBox="0 0 200 201" fill="none" xmlns="http://www.w3.org/2000/svg">
<mask id="path-1-inside-1_31959_362" fill="white">
<path d="M160.465 1.8457L159.989 2C160.465 1.84608 160.466 1.84619 160.466 1.84668V1.84863C160.466 1.85039 160.468 1.85313 160.469 1.85645C160.471 1.8634 160.474 1.87411 160.479 1.8877C160.487 1.91527 160.501 1.95654 160.519 2.01074C160.553 2.11922 160.604 2.28061 160.671 2.49219C160.804 2.91591 161 3.54251 161.247 4.35156C161.742 5.96971 162.446 8.32127 163.281 11.2578C164.951 17.1312 167.147 25.3463 169.252 34.7119C173.459 53.4293 177.314 76.7981 175.849 95.2646L175.699 96.9697C175.308 101.058 174.644 105.84 174.048 109.771C173.707 112.02 173.387 113.993 173.153 115.404C173.036 116.11 172.941 116.675 172.875 117.064C172.842 117.259 172.815 117.409 172.798 117.511C172.789 117.56 172.782 117.599 172.777 117.625C173.305 120.47 173.579 123.381 173.579 126.343C173.579 134.414 171.55 142.104 167.879 149.106L192.8 145.437L162.268 157.727C160.778 159.615 159.159 161.431 157.419 163.166L185.318 166.809L148.264 170.785C146.774 171.822 145.23 172.81 143.639 173.749L168.447 184.487L133.939 178.587C123.823 182.796 112.329 185.177 100.142 185.177C87.3581 185.177 75.3378 182.559 64.8691 177.957L31.5527 183.652L55.7158 173.192C53.9787 172.133 52.3023 171.014 50.6914 169.838L14.6816 165.974L42.1045 162.394C40.339 160.572 38.7038 158.666 37.2109 156.683L7.2002 144.603L31.9658 148.25C28.5727 141.479 26.7041 134.086 26.7041 126.343C26.7041 123.381 26.9784 120.47 27.5059 117.625C27.5013 117.599 27.4949 117.56 27.4863 117.511C27.4687 117.409 27.4423 117.259 27.4092 117.064C27.3427 116.675 27.2478 116.11 27.1309 115.404C26.897 113.993 26.5772 112.02 26.2363 109.771C25.6402 105.84 24.9762 101.058 24.585 96.9697L24.4355 95.2646C22.9703 76.7981 26.8255 53.4293 31.0322 34.7119C33.1372 25.3463 35.333 17.1312 37.0029 11.2578C37.8379 8.32122 38.5422 5.96972 39.0371 4.35156C39.2846 3.54246 39.4797 2.91591 39.6133 2.49219C39.68 2.28056 39.731 2.11922 39.7656 2.01074C39.783 1.95648 39.7968 1.91527 39.8057 1.8877C39.8101 1.87406 39.8132 1.8634 39.8154 1.85645C39.8165 1.85307 39.8178 1.85039 39.8184 1.84863V1.84668C39.8185 1.84619 39.8193 1.84599 40.2949 2L39.8193 1.8457L40.3232 0.289062L40.7754 1.8623L62.0957 76.0107C73.1918 70.6159 86.2139 67.5098 100.142 67.5098C114.069 67.5098 127.091 70.616 138.188 76.0107L159.509 1.8623L159.961 0.289062L160.465 1.8457Z"/>
</mask>
<path d="M160.465 1.8457L159.989 2C160.465 1.84608 160.466 1.84619 160.466 1.84668V1.84863C160.466 1.85039 160.468 1.85313 160.469 1.85645C160.471 1.8634 160.474 1.87411 160.479 1.8877C160.487 1.91527 160.501 1.95654 160.519 2.01074C160.553 2.11922 160.604 2.28061 160.671 2.49219C160.804 2.91591 161 3.54251 161.247 4.35156C161.742 5.96971 162.446 8.32127 163.281 11.2578C164.951 17.1312 167.147 25.3463 169.252 34.7119C173.459 53.4293 177.314 76.7981 175.849 95.2646L175.699 96.9697C175.308 101.058 174.644 105.84 174.048 109.771C173.707 112.02 173.387 113.993 173.153 115.404C173.036 116.11 172.941 116.675 172.875 117.064C172.842 117.259 172.815 117.409 172.798 117.511C172.789 117.56 172.782 117.599 172.777 117.625C173.305 120.47 173.579 123.381 173.579 126.343C173.579 134.414 171.55 142.104 167.879 149.106L192.8 145.437L162.268 157.727C160.778 159.615 159.159 161.431 157.419 163.166L185.318 166.809L148.264 170.785C146.774 171.822 145.23 172.81 143.639 173.749L168.447 184.487L133.939 178.587C123.823 182.796 112.329 185.177 100.142 185.177C87.3581 185.177 75.3378 182.559 64.8691 177.957L31.5527 183.652L55.7158 173.192C53.9787 172.133 52.3023 171.014 50.6914 169.838L14.6816 165.974L42.1045 162.394C40.339 160.572 38.7038 158.666 37.2109 156.683L7.2002 144.603L31.9658 148.25C28.5727 141.479 26.7041 134.086 26.7041 126.343C26.7041 123.381 26.9784 120.47 27.5059 117.625C27.5013 117.599 27.4949 117.56 27.4863 117.511C27.4687 117.409 27.4423 117.259 27.4092 117.064C27.3427 116.675 27.2478 116.11 27.1309 115.404C26.897 113.993 26.5772 112.02 26.2363 109.771C25.6402 105.84 24.9762 101.058 24.585 96.9697L24.4355 95.2646C22.9703 76.7981 26.8255 53.4293 31.0322 34.7119C33.1372 25.3463 35.333 17.1312 37.0029 11.2578C37.8379 8.32122 38.5422 5.96972 39.0371 4.35156C39.2846 3.54246 39.4797 2.91591 39.6133 2.49219C39.68 2.28056 39.731 2.11922 39.7656 2.01074C39.783 1.95648 39.7968 1.91527 39.8057 1.8877C39.8101 1.87406 39.8132 1.8634 39.8154 1.85645C39.8165 1.85307 39.8178 1.85039 39.8184 1.84863V1.84668C39.8185 1.84619 39.8193 1.84599 40.2949 2L39.8193 1.8457L40.3232 0.289062L40.7754 1.8623L62.0957 76.0107C73.1918 70.6159 86.2139 67.5098 100.142 67.5098C114.069 67.5098 127.091 70.616 138.188 76.0107L159.509 1.8623L159.961 0.289062L160.465 1.8457Z" fill=""/>
<path d="M160.465 1.8457L161.391 4.69928L164.242 3.77408L163.319 0.921766L160.465 1.8457ZM159.989 2L159.063 -0.853575L160.913 4.8541L159.989 2ZM160.466 1.84668H163.466V1.37343L163.32 0.923156L160.466 1.84668ZM160.466 1.84863H157.466V2.33412L157.619 2.79483L160.466 1.84863ZM160.469 1.85645L163.324 0.936084L163.324 0.934913L160.469 1.85645ZM160.479 1.8877L157.623 2.80652L157.623 2.80664L160.479 1.8877ZM160.519 2.01074L163.376 1.09743L163.376 1.09742L160.519 2.01074ZM160.671 2.49219L163.532 1.59024V1.59023L160.671 2.49219ZM161.247 4.35156L164.116 3.47406L164.116 3.47406L161.247 4.35156ZM163.281 11.2578L166.167 10.4374V10.4374L163.281 11.2578ZM169.252 34.7119L172.179 34.0541V34.0541L169.252 34.7119ZM175.849 95.2646L178.837 95.5265L178.838 95.5142L178.839 95.5019L175.849 95.2646ZM175.699 96.9697L178.686 97.2555L178.687 97.2435L178.688 97.2316L175.699 96.9697ZM174.048 109.771L177.014 110.221V110.221L174.048 109.771ZM173.153 115.404L176.113 115.895L173.153 115.404ZM172.875 117.064L175.832 117.569L172.875 117.064ZM172.798 117.511L175.754 118.022L172.798 117.511ZM172.777 117.625L169.822 117.109L169.729 117.641L169.828 118.172L172.777 117.625ZM173.579 126.343H176.579V126.343L173.579 126.343ZM167.879 149.106L165.222 147.714L162.486 152.933L168.316 152.074L167.879 149.106ZM192.8 145.437L193.92 148.22L192.363 142.469L192.8 145.437ZM162.268 157.727L161.147 154.944L160.407 155.242L159.912 155.869L162.268 157.727ZM157.419 163.166L155.301 161.042L150.979 165.351L157.031 166.141L157.419 163.166ZM185.318 166.809L185.638 169.791L185.707 163.834L185.318 166.809ZM148.264 170.785L147.944 167.802L147.181 167.884L146.551 168.322L148.264 170.785ZM143.639 173.749L142.114 171.165L137.037 174.16L142.447 176.502L143.639 173.749ZM168.447 184.487L167.942 187.444L169.639 181.734L168.447 184.487ZM133.939 178.587L134.445 175.63L133.589 175.483L132.787 175.817L133.939 178.587ZM100.142 185.177L100.142 188.177H100.142V185.177ZM64.8691 177.957L66.0763 175.211L65.2516 174.848L64.3636 175L64.8691 177.957ZM31.5527 183.652L30.3609 180.899L32.0582 186.609L31.5527 183.652ZM55.7158 173.192L56.9076 175.945L62.2221 173.645L57.2773 170.631L55.7158 173.192ZM50.6914 169.838L52.4604 167.415L51.811 166.941L51.0115 166.855L50.6914 169.838ZM14.6816 165.974L14.2933 162.999L14.3615 168.957L14.6816 165.974ZM42.1045 162.394L42.4929 165.368L48.4161 164.595L44.2587 160.306L42.1045 162.394ZM37.2109 156.683L39.6077 154.878L39.1056 154.211L38.3312 153.9L37.2109 156.683ZM7.2002 144.603L7.63732 141.635L6.07997 147.386L7.2002 144.603ZM31.9658 148.25L31.5287 151.218L37.2295 152.058L34.6479 146.906L31.9658 148.25ZM26.7041 126.343L23.7041 126.343V126.343H26.7041ZM27.5059 117.625L30.4556 118.172L30.554 117.641L30.4611 117.109L27.5059 117.625ZM27.4863 117.511L24.5302 118.022L27.4863 117.511ZM27.4092 117.064L24.452 117.569L27.4092 117.064ZM27.1309 115.404L24.1712 115.895L27.1309 115.404ZM26.2363 109.771L23.2702 110.221V110.221L26.2363 109.771ZM24.585 96.9697L21.5964 97.2316L21.5975 97.2435L21.5986 97.2555L24.585 96.9697ZM24.4355 95.2646L21.4449 95.5019L21.4459 95.5142L21.447 95.5265L24.4355 95.2646ZM31.0322 34.7119L28.1052 34.0541V34.0541L31.0322 34.7119ZM37.0029 11.2578L34.1173 10.4374V10.4374L37.0029 11.2578ZM39.0371 4.35156L36.1683 3.47406L36.1683 3.47406L39.0371 4.35156ZM39.6133 2.49219L36.7521 1.59023L36.7521 1.59024L39.6133 2.49219ZM39.7656 2.01074L36.908 1.09742V1.09743L39.7656 2.01074ZM39.8057 1.8877L42.6615 2.80653L42.6615 2.80652L39.8057 1.8877ZM39.8154 1.85645L36.9605 0.934913L36.9604 0.935149L39.8154 1.85645ZM39.8184 1.84863L42.6715 2.77577L42.8184 2.32383V1.84863H39.8184ZM39.8184 1.84668L36.964 0.923156L36.8184 1.37343V1.84668H39.8184ZM40.2949 2L39.3708 4.8541L41.2207 -0.853575L40.2949 2ZM39.8193 1.8457L36.9652 0.921766L36.0418 3.77408L38.8935 4.69928L39.8193 1.8457ZM40.3232 0.289062L43.2065 -0.539591L40.4938 -9.97861L37.4691 -0.634875L40.3232 0.289062ZM40.7754 1.8623L37.8921 2.69096L37.8922 2.69132L40.7754 1.8623ZM62.0957 76.0107L59.2125 76.8398L60.1985 80.2689L63.4075 78.7088L62.0957 76.0107ZM100.142 67.5098V64.5098H100.142L100.142 67.5098ZM138.188 76.0107L136.876 78.7088L140.085 80.2689L141.071 76.8398L138.188 76.0107ZM159.509 1.8623L162.392 2.69136L162.392 2.69096L159.509 1.8623ZM159.961 0.289062L162.815 -0.634875L159.79 -9.97861L157.078 -0.539591L159.961 0.289062ZM160.465 1.8457L159.539 -1.00787L159.063 -0.853575L159.989 2L160.915 4.85358L161.391 4.69928L160.465 1.8457ZM159.989 2L160.913 4.8541C161.152 4.77694 161.267 4.73975 161.322 4.72207C161.354 4.71175 161.353 4.7122 161.342 4.71575C161.337 4.71704 161.326 4.72045 161.311 4.72483C161.302 4.72767 161.264 4.73883 161.215 4.75155C161.19 4.75786 161.141 4.77039 161.077 4.7836C161.032 4.79308 160.885 4.82342 160.693 4.83799C160.621 4.84351 159.951 4.91399 159.207 4.56964C158.734 4.35121 158.31 4.00525 157.995 3.5484C157.726 3.15813 157.618 2.78977 157.612 2.7702L160.466 1.84668L163.32 0.923156C163.314 0.903576 163.205 0.535199 162.936 0.14492C162.622 -0.311947 162.197 -0.657918 161.725 -0.87636C160.98 -1.22073 160.311 -1.15026 160.238 -1.14472C160.046 -1.13015 159.899 -1.09978 159.853 -1.09024C159.79 -1.07697 159.74 -1.06436 159.715 -1.05792C159.665 -1.04495 159.625 -1.03338 159.614 -1.02992C159.597 -1.0249 159.583 -1.02063 159.575 -1.01818C159.548 -1.00998 159.517 -1.00003 159.489 -0.991195C159.425 -0.970579 159.302 -0.930863 159.065 -0.854105L159.989 2ZM160.466 1.84668H157.466V1.84863H160.466H163.466V1.84668H160.466ZM160.466 1.84863L157.619 2.79483C157.626 2.81695 157.633 2.83647 157.639 2.85286C157.645 2.86928 157.65 2.88371 157.654 2.89567C157.659 2.90765 157.663 2.91806 157.666 2.92647C157.669 2.93489 157.672 2.94208 157.674 2.94758C157.676 2.95307 157.678 2.9576 157.679 2.96065C157.681 2.96365 157.682 2.96602 157.682 2.96693C157.682 2.96719 157.682 2.9674 157.682 2.96755C157.682 2.96767 157.682 2.9678 157.682 2.96781C157.682 2.96792 157.682 2.96765 157.682 2.96732C157.682 2.96663 157.681 2.96484 157.68 2.96252C157.678 2.95788 157.675 2.94964 157.671 2.93928C157.667 2.92881 157.662 2.91548 157.656 2.89995C157.645 2.86908 157.63 2.82756 157.614 2.77798L160.469 1.85645L163.324 0.934913C163.307 0.883676 163.292 0.840568 163.28 0.808191C163.268 0.776381 163.258 0.751558 163.254 0.741384C163.253 0.738732 163.252 0.736618 163.252 0.735614C163.251 0.735121 163.251 0.734698 163.251 0.734652C163.251 0.734491 163.251 0.734761 163.251 0.735075C163.252 0.735553 163.255 0.74308 163.258 0.752676C163.262 0.762372 163.269 0.780316 163.278 0.803006C163.282 0.814713 163.287 0.8289 163.293 0.845089C163.299 0.861238 163.305 0.880538 163.313 0.902434L160.466 1.84863ZM160.469 1.85645L157.613 2.77681C157.611 2.76867 157.609 2.76214 157.607 2.758C157.606 2.75381 157.605 2.75068 157.605 2.74933C157.604 2.748 157.604 2.74725 157.604 2.74803C157.604 2.74843 157.605 2.74874 157.605 2.74957C157.605 2.75027 157.605 2.75125 157.606 2.75234C157.608 2.76113 157.615 2.78151 157.623 2.80652L160.479 1.8877L163.334 0.968871C163.338 0.980298 163.341 0.988528 163.34 0.986838C163.34 0.985626 163.34 0.986227 163.339 0.983586C163.339 0.981958 163.338 0.978903 163.336 0.975377C163.335 0.971831 163.334 0.966619 163.332 0.960459C163.33 0.954349 163.327 0.945956 163.324 0.936084L160.469 1.85645ZM160.479 1.8877L157.623 2.80664C157.627 2.82138 157.632 2.83528 157.635 2.84516C157.637 2.85038 157.639 2.85567 157.64 2.86029C157.642 2.86515 157.643 2.8695 157.645 2.874C157.65 2.89151 157.656 2.9073 157.661 2.92406L160.519 2.01074L163.376 1.09742C163.364 1.05997 163.354 1.02803 163.346 1.00447C163.341 0.988093 163.341 0.987822 163.337 0.976704C163.335 0.969398 163.334 0.967794 163.334 0.968754L160.479 1.8877ZM160.519 2.01074L157.661 2.92405C157.693 3.02584 157.743 3.1814 157.81 3.39415L160.671 2.49219L163.532 1.59023C163.466 1.37983 163.413 1.2126 163.376 1.09743L160.519 2.01074ZM160.671 2.49219L157.81 3.39414C157.94 3.80875 158.133 4.42713 158.378 5.22906L161.247 4.35156L164.116 3.47406C163.866 2.65789 163.669 2.02307 163.532 1.59024L160.671 2.49219ZM161.247 4.35156L158.378 5.22906C158.868 6.83093 159.567 9.1633 160.396 12.0783L163.281 11.2578L166.167 10.4374C165.326 7.47923 164.616 5.1085 164.116 3.47406L161.247 4.35156ZM163.281 11.2578L160.396 12.0783C162.054 17.9114 164.235 26.0709 166.325 35.3698L169.252 34.7119L172.179 34.0541C170.059 24.6217 167.848 16.351 166.167 10.4374L163.281 11.2578ZM169.252 34.7119L166.325 35.3698C170.521 54.0391 174.285 77.0368 172.858 95.0274L175.849 95.2646L178.839 95.5019C180.342 76.5594 176.396 52.8194 172.179 34.0541L169.252 34.7119ZM175.849 95.2646L172.86 95.0028L172.711 96.7078L175.699 96.9697L178.688 97.2316L178.837 95.5265L175.849 95.2646ZM175.699 96.9697L172.713 96.684C172.33 100.691 171.675 105.409 171.082 109.322L174.048 109.771L177.014 110.221C177.613 106.272 178.287 101.426 178.686 97.2555L175.699 96.9697ZM174.048 109.771L171.082 109.322C170.743 111.553 170.426 113.512 170.194 114.914L173.153 115.404L176.113 115.895C176.348 114.474 176.67 112.487 177.014 110.221L174.048 109.771ZM173.153 115.404L170.194 114.914C170.077 115.617 169.983 116.177 169.918 116.559L172.875 117.064L175.832 117.569C175.9 117.174 175.996 116.603 176.113 115.895L173.153 115.404ZM172.875 117.064L169.918 116.559C169.885 116.75 169.861 116.889 169.842 116.999L172.798 117.511L175.754 118.022C175.77 117.929 175.798 117.767 175.832 117.569L172.875 117.064ZM172.798 117.511L169.842 116.999C169.84 117.011 169.838 117.023 169.835 117.038C169.834 117.043 169.831 117.058 169.83 117.066C169.828 117.076 169.825 117.092 169.822 117.109L172.777 117.625L175.733 118.141C175.732 118.145 175.732 118.146 175.733 118.14C175.734 118.132 175.735 118.129 175.737 118.115C175.741 118.093 175.747 118.06 175.754 118.022L172.798 117.511ZM172.777 117.625L169.828 118.172C170.322 120.839 170.579 123.566 170.579 126.343L173.579 126.343L176.579 126.343C176.579 123.195 176.288 120.101 175.727 117.078L172.777 117.625ZM173.579 126.343H170.579C170.579 133.899 168.681 141.115 165.222 147.714L167.879 149.106L170.536 150.499C174.418 143.094 176.579 134.928 176.579 126.343H173.579ZM167.879 149.106L168.316 152.074L193.237 148.405L192.8 145.437L192.363 142.469L167.442 146.138L167.879 149.106ZM192.8 145.437L191.68 142.654L161.147 154.944L162.268 157.727L163.388 160.51L193.92 148.22L192.8 145.437ZM162.268 157.727L159.912 155.869C158.498 157.661 156.959 159.389 155.301 161.042L157.419 163.166L159.537 165.29C161.36 163.473 163.058 161.568 164.623 159.584L162.268 157.727ZM157.419 163.166L157.031 166.141L184.93 169.783L185.318 166.809L185.707 163.834L157.807 160.191L157.419 163.166ZM185.318 166.809L184.998 163.826L147.944 167.802L148.264 170.785L148.584 173.768L185.638 169.791L185.318 166.809ZM148.264 170.785L146.551 168.322C145.123 169.315 143.643 170.263 142.114 171.165L143.639 173.749L145.163 176.333C146.817 175.357 148.424 174.328 149.977 173.248L148.264 170.785ZM143.639 173.749L142.447 176.502L167.256 187.24L168.447 184.487L169.639 181.734L144.83 170.996L143.639 173.749ZM168.447 184.487L168.953 181.53L134.445 175.63L133.939 178.587L133.434 181.544L167.942 187.444L168.447 184.487ZM133.939 178.587L132.787 175.817C123.041 179.872 111.94 182.177 100.142 182.177V185.177V188.177C112.718 188.177 124.604 185.72 135.092 181.357L133.939 178.587ZM100.142 185.177L100.142 182.177C87.7656 182.177 76.1572 179.642 66.0763 175.211L64.8691 177.957L63.662 180.703C74.5185 185.475 86.9505 188.177 100.142 188.177L100.142 185.177ZM64.8691 177.957L64.3636 175L31.0472 180.695L31.5527 183.652L32.0582 186.609L65.3746 180.914L64.8691 177.957ZM31.5527 183.652L32.7445 186.405L56.9076 175.945L55.7158 173.192L54.524 170.439L30.3609 180.899L31.5527 183.652ZM55.7158 173.192L57.2773 170.631C55.6101 169.615 54.003 168.541 52.4604 167.415L50.6914 169.838L48.9224 172.261C50.6016 173.487 52.3473 174.652 54.1544 175.754L55.7158 173.192ZM50.6914 169.838L51.0115 166.855L15.0017 162.991L14.6816 165.974L14.3615 168.957L50.3713 172.821L50.6914 169.838ZM14.6816 165.974L15.07 168.948L42.4929 165.368L42.1045 162.394L41.7161 159.419L14.2933 162.999L14.6816 165.974ZM42.1045 162.394L44.2587 160.306C42.5769 158.57 41.0231 156.759 39.6077 154.878L37.2109 156.683L34.8141 158.487C36.3845 160.573 38.1012 162.574 39.9503 164.481L42.1045 162.394ZM37.2109 156.683L38.3312 153.9L8.32042 141.82L7.2002 144.603L6.07997 147.386L36.0907 159.466L37.2109 156.683ZM7.2002 144.603L6.76307 147.571L31.5287 151.218L31.9658 148.25L32.4029 145.282L7.63732 141.635L7.2002 144.603ZM31.9658 148.25L34.6479 146.906C31.4518 140.528 29.7041 133.593 29.7041 126.343H26.7041H23.7041C23.7041 134.578 25.6936 142.43 29.2837 149.594L31.9658 148.25ZM26.7041 126.343L29.7041 126.343C29.7041 123.566 29.9612 120.839 30.4556 118.172L27.5059 117.625L24.5561 117.078C23.9957 120.101 23.7041 123.195 23.7041 126.343L26.7041 126.343ZM27.5059 117.625L30.4611 117.109C30.4526 117.06 30.4605 117.104 30.4424 116.999L27.4863 117.511L24.5302 118.022C24.5336 118.042 24.5367 118.06 24.5399 118.078C24.5425 118.094 24.5467 118.119 24.5506 118.141L27.5059 117.625ZM27.4863 117.511L30.4424 116.999C30.4233 116.889 30.3989 116.75 30.3664 116.559L27.4092 117.064L24.452 117.569C24.4858 117.767 24.5141 117.929 24.5302 118.022L27.4863 117.511ZM27.4092 117.064L30.3664 116.559C30.3011 116.177 30.207 115.617 30.0905 114.914L27.1309 115.404L24.1712 115.895C24.2886 116.603 24.3844 117.174 24.452 117.569L27.4092 117.064ZM27.1309 115.404L30.0905 114.914C29.8582 113.512 29.5407 111.553 29.2024 109.322L26.2363 109.771L23.2702 110.221C23.6137 112.487 23.9358 114.474 24.1712 115.895L27.1309 115.404ZM26.2363 109.771L29.2024 109.322C28.6091 105.409 27.9547 100.691 27.5713 96.684L24.585 96.9697L21.5986 97.2555C21.9976 101.426 22.6714 106.272 23.2702 110.221L26.2363 109.771ZM24.585 96.9697L27.5735 96.7078L27.4241 95.0028L24.4355 95.2646L21.447 95.5265L21.5964 97.2316L24.585 96.9697ZM24.4355 95.2646L27.4261 95.0274C25.9987 77.0368 29.7632 54.0391 33.9592 35.3698L31.0322 34.7119L28.1052 34.0541C23.8877 52.8194 19.942 76.5594 21.4449 95.5019L24.4355 95.2646ZM31.0322 34.7119L33.9592 35.3698C36.0492 26.0709 38.2301 17.9114 39.8886 12.0783L37.0029 11.2578L34.1173 10.4374C32.4359 16.351 30.2252 24.6216 28.1052 34.0541L31.0322 34.7119ZM37.0029 11.2578L39.8886 12.0783C40.7174 9.16325 41.4159 6.83093 41.9059 5.22906L39.0371 4.35156L36.1683 3.47406C35.6684 5.1085 34.9584 7.47918 34.1173 10.4374L37.0029 11.2578ZM39.0371 4.35156L41.9059 5.22906C42.1512 4.42708 42.3438 3.80875 42.4745 3.39414L39.6133 2.49219L36.7521 1.59024C36.6156 2.02307 36.418 2.65783 36.1683 3.47406L39.0371 4.35156ZM39.6133 2.49219L42.4745 3.39415C42.5416 3.18134 42.5907 3.02584 42.6232 2.92406L39.7656 2.01074L36.908 1.09743C36.8712 1.2126 36.8184 1.37978 36.7521 1.59023L39.6133 2.49219ZM39.7656 2.01074L42.6232 2.92406C42.6286 2.90729 42.6337 2.8915 42.6395 2.874C42.6409 2.86963 42.6469 2.85144 42.6489 2.84515C42.6522 2.83525 42.6567 2.82132 42.6615 2.80653L39.8057 1.8877L36.9498 0.968865C36.9502 0.967857 36.9497 0.969421 36.9473 0.976702C36.9437 0.98759 36.9435 0.988256 36.9382 1.00442C36.9305 1.02798 36.92 1.05993 36.908 1.09742L39.7656 2.01074ZM39.8057 1.8877L42.6615 2.80652C42.6696 2.78137 42.6759 2.7609 42.6786 2.75211C42.6789 2.75103 42.6792 2.75006 42.6794 2.74937C42.6797 2.74857 42.6798 2.74825 42.6799 2.74789C42.6801 2.74716 42.6799 2.74798 42.6794 2.7494C42.679 2.75084 42.678 2.75409 42.6766 2.75842C42.6753 2.7627 42.6731 2.76941 42.6705 2.77774L39.8154 1.85645L36.9604 0.935149C36.9571 0.945216 36.9544 0.95378 36.9525 0.960033C36.9505 0.966333 36.9488 0.971662 36.9477 0.975293C36.9466 0.978905 36.9456 0.982025 36.9451 0.983694C36.9442 0.986574 36.9445 0.985603 36.9441 0.987021C36.9436 0.988709 36.9461 0.980386 36.9498 0.968871L39.8057 1.8877ZM39.8154 1.85645L42.6704 2.77798C42.6541 2.82848 42.6389 2.87092 42.627 2.90282C42.621 2.91879 42.6157 2.93248 42.6116 2.94316C42.6075 2.95371 42.6041 2.96204 42.6024 2.96645C42.6015 2.96864 42.6008 2.97032 42.6007 2.97073C42.6006 2.97085 42.6005 2.97117 42.6006 2.9708C42.6007 2.97062 42.6009 2.97006 42.6012 2.96936C42.6017 2.96804 42.6029 2.96517 42.6043 2.96155C42.6058 2.95789 42.6079 2.95262 42.6104 2.94628C42.6129 2.93993 42.6161 2.93175 42.6197 2.9222C42.6234 2.91267 42.6278 2.90096 42.6327 2.88753C42.6377 2.87412 42.6435 2.85806 42.6499 2.83982C42.6563 2.82163 42.6636 2.80009 42.6715 2.77577L39.8184 1.84863L36.9652 0.921498C36.973 0.897398 36.9803 0.876084 36.9866 0.858122C36.9929 0.840121 36.9986 0.824296 37.0035 0.811139C37.0083 0.797959 37.0127 0.786502 37.0162 0.777228C37.0198 0.767942 37.0229 0.760031 37.0252 0.75396C37.0276 0.747892 37.0296 0.742905 37.031 0.739537C37.0323 0.736207 37.0333 0.73363 37.0337 0.732611C37.0339 0.732066 37.0341 0.731656 37.0341 0.731631C37.0342 0.731415 37.034 0.73189 37.0339 0.732162C37.0336 0.732892 37.0328 0.734891 37.0318 0.737411C37.0298 0.742478 37.0262 0.751492 37.0218 0.762742C37.0173 0.774133 37.0118 0.788547 37.0056 0.80528C36.9931 0.838681 36.9773 0.882722 36.9605 0.934913L39.8154 1.85645ZM39.8184 1.84863H42.8184V1.84668H39.8184H36.8184V1.84863H39.8184ZM39.8184 1.84668L42.6727 2.7702C42.6697 2.77955 42.6387 2.87744 42.5892 2.99667C42.536 3.12472 42.45 3.30724 42.3155 3.50931C42.0141 3.96197 41.5991 4.31882 41.1201 4.5495C40.3631 4.9141 39.6765 4.8442 39.6018 4.83879C39.4062 4.82463 39.256 4.79377 39.2101 4.78427C39.1457 4.77093 39.0953 4.75824 39.0707 4.75188C39.0209 4.73904 38.9827 4.72776 38.973 4.72493C38.9581 4.72051 38.9469 4.71707 38.9427 4.71578C38.9311 4.7122 38.9298 4.71172 38.962 4.72204C39.0171 4.73971 39.1323 4.7769 39.3708 4.8541L40.2949 2L41.2191 -0.854105C40.9819 -0.930905 40.8589 -0.970623 40.7947 -0.991229C40.7672 -1.00005 40.736 -1.01001 40.7093 -1.01823C40.7014 -1.02068 40.6873 -1.02498 40.6703 -1.03002C40.6585 -1.03349 40.6189 -1.04517 40.5681 -1.05826C40.5429 -1.06474 40.4922 -1.07752 40.4275 -1.09092C40.3814 -1.10048 40.2309 -1.13136 40.0352 -1.14553C39.9604 -1.15095 39.2737 -1.22084 38.5166 -0.856217C38.0377 -0.62553 37.6227 -0.268666 37.3213 0.184006C37.1867 0.386085 37.1007 0.568613 37.0475 0.696663C36.998 0.815901 36.9671 0.913807 36.964 0.923156L39.8184 1.84668ZM40.2949 2L41.2207 -0.853575L40.7451 -1.00787L39.8193 1.8457L38.8935 4.69928L39.3691 4.85358L40.2949 2ZM39.8193 1.8457L42.6735 2.76964L43.1774 1.213L40.3232 0.289062L37.4691 -0.634875L36.9652 0.921766L39.8193 1.8457ZM40.3232 0.289062L37.44 1.11772L37.8921 2.69096L40.7754 1.8623L43.6587 1.03365L43.2065 -0.539591L40.3232 0.289062ZM40.7754 1.8623L37.8922 2.69132L59.2125 76.8398L62.0957 76.0107L64.9789 75.1817L43.6586 1.03329L40.7754 1.8623ZM62.0957 76.0107L63.4075 78.7088C74.0846 73.5176 86.6569 70.5098 100.142 70.5098L100.142 67.5098L100.142 64.5098C85.7709 64.5098 72.299 67.7142 60.7839 73.3127L62.0957 76.0107ZM100.142 67.5098V70.5098C113.626 70.5098 126.199 73.5177 136.876 78.7088L138.188 76.0107L139.499 73.3127C127.984 67.7143 114.512 64.5098 100.142 64.5098V67.5098ZM138.188 76.0107L141.071 76.8398L162.392 2.69136L159.509 1.8623L156.626 1.03325L135.304 75.1817L138.188 76.0107ZM159.509 1.8623L162.392 2.69096L162.844 1.11772L159.961 0.289062L157.078 -0.539591L156.626 1.03365L159.509 1.8623ZM159.961 0.289062L157.107 1.213L157.611 2.76964L160.465 1.8457L163.319 0.921766L162.815 -0.634875L159.961 0.289062Z" fill="white" mask="url(#path-1-inside-1_31959_362)"/>
<path d="M122.048 135.94C120.471 138.699 118.918 143.451 118.918 143.451L121.213 142.616L126.846 141.156C126.846 141.156 144.755 138.801 152.09 131.141C157.535 125.457 160.853 112.991 160.853 112.991C160.853 112.991 155.592 117.044 152.09 119.458C141.073 127.053 128.688 124.321 122.048 135.94Z" stroke="white" stroke-width="3"/>
<path d="M78.4443 135.94C80.0209 138.699 81.5737 143.451 81.5737 143.451L79.2788 142.616L73.6458 141.156C73.6458 141.156 55.7376 138.801 48.4017 131.141C42.9574 125.457 39.6393 112.991 39.6393 112.991C39.6393 112.991 44.9 117.044 48.4017 119.458C59.4195 127.053 71.8045 124.321 78.4443 135.94Z" stroke="white" stroke-width="3"/>
<path d="M89.0415 154.082C91.7141 154.551 93.4282 153.932 95.8851 155.283C98.342 156.635 100.288 160.286 100.288 160.286" stroke="white" stroke-width="3" stroke-linecap="round"/>
<path d="M111.951 154.082C109.348 154.597 107.695 154.017 105.286 155.399C102.877 156.782 100.924 160.428 100.924 160.428" stroke="white" stroke-width="3" stroke-linecap="round"/>
<path d="M100.501 165L97.1811 158.25H103.82L100.501 165Z" fill="white"/>
<path d="M100.439 160.864C100.465 160.922 100.498 160.978 100.532 161.031" stroke="white" stroke-linecap="square"/>
<ellipse cx="134.774" cy="132.81" rx="1.66903" ry="6.05024" fill="white"/>
<ellipse cx="64.6749" cy="132.393" rx="1.66903" ry="6.05024" fill="white"/>
</svg>
